#!OML:ASF E:\pregnant2\Project 1\Capture day 1\Session 1\pregnant2.ASF
:FULLY-SPECIFIED
:DEGREES
955
root 5.45302 22.4292 -13.4476 28.0013 0.611137 2.31499
lowerback -8.60382 -2.15914 -6.69612
upperback -12.8279 -2.62798 1.68093
thorax -8.52572 -0.627141 5.50386
lowerneck -9.28293 -2.1383 -7.6331
upperneck 51.7054 -0.0842865 -1.95878
head 24.4611 -1.87964 0.315978
rclavicle 1.96176e-014 8.15017e-015
rhumerus -54.0618 11.2836 -77.9824
rradius 47.7284
rwrist 1.92053
rhand -14.5588 -16.5232
rfingers 7.12502
rthumb 11.5903 -46.1827
lclavicle 1.96176e-014 8.15017e-015
lhumerus -50.4209 6.44825 81.0971
lradius 39.436
lwrist 0.327544
lhand -12.2414 27.3696
lfingers 7.12502
lthumb 13.8244 56.8902
rfemur -50.4266 -3.50839 22.2676
rtibia 61.0048
rfoot -11.1976 -8.66965
rtoes -8.35461
lfemur -47.5482 -8.80889 -27.1398
ltibia 35.648
lfoot -9.37156 20.0176
ltoes -11.0555
956
root 5.48569 22.4383 -13.3805 27.6723 0.248742 2.35656
lowerback -8.48171 -2.06984 -6.81221
upperback -12.685 -2.51411 1.62168
thorax -8.44892 -0.570238 5.50828
lowerneck -9.30761 -2.19946 -7.73333
upperneck 51.6808 -0.138924 -1.99361
head 24.4542 -1.92538 0.302561
rclavicle -9.56651e-016 -1.15295e-014
rhumerus -54.2106 11.4568 -78.0616
rradius 47.0511
rwrist 2.34225
rhand -14.4593 -16.1245
rfingers 7.12502
rthumb 11.6862 -45.7786
lclavicle -9.56651e-016 -1.15295e-014
lhumerus -50.4198 6.3532 81.1734
lradius 39.7147
lwrist 0.370927
lhand -12.0879 27.8208
lfingers 7.12502
lthumb 13.9723 57.3313
rfemur -51.174 -3.77324 21.9975
rtibia 62.8366
rfoot -9.09434 -8.08379
rtoes -8.1181
lfemur -46.8434 -8.94198 -27.3167
ltibia 35.5698
lfoot -10.029 20.6278
ltoes -9.35246
957
root 5.51004 22.4325 -13.3303 27.5993 0.15977 2.54335
lowerback -8.38188 -2.1037 -7.0584
upperback -12.6387 -2.56319 1.56484
thorax -8.44518 -0.577661 5.58666
lowerneck -9.36125 -2.24875 -7.78787
upperneck 51.6561 -0.1853 -2.02639
head 24.4577 -1.95829 0.283015
rclavicle 4.8081e-015 -1.19271e-014
rhumerus -54.2808 11.564 -78.1465
rradius 46.3183
rwrist 2.75311
rhand -14.2794 -15.1799
rfingers 7.12502
rthumb 11.8597 -44.824
lclavicle 4.8081e-015 -1.19271e-014
lhumerus -50.3721 6.16899 81.3266
lradius 39.9566
lwrist 0.67026
lhand -12.4847 27.8138
lfingers 7.12502
lthumb 13.5899 57.3503
rfemur -52.3201 -4.21749 21.7276
rtibia 64.6829
rfoot -6.96337 -7.58534
rtoes -7.90016
lfemur -46.5128 -8.92802 -27.7019
ltibia 35.5246
lfoot -10.2536 20.6543
ltoes -9.33002
958
root 5.52897 22.4179 -13.296 27.88 0.194437 2.77086
lowerback -8.46467 -2.20815 -7.29602
upperback -12.704 -2.6967 1.50721
thorax -8.45273 -0.62489 5.65348
lowerneck -9.3985 -2.28951 -7.85729
upperneck 51.6123 -0.230063 -2.02939
head 24.4316 -1.99015 0.285034
rclavicle -4.42296e-015 -6.16232e-015
rhumerus -54.3287 11.6933 -78.24
rradius 45.6713
rwrist 3.19893
rhand -13.9979 -14.4339
rfingers 7.12502
rthumb 12.1311 -44.0622
lclavicle -4.42296e-015 -6.16232e-015
lhumerus -50.3411 5.99511 81.4003
lradius 40.2808
lwrist 0.76623
lhand -12.5501 27.5303
lfingers 7.12502
lthumb 13.5268 57.0709
rfemur -53.9409 -4.61355 21.4719
rtibia 66.4413
rfoot -4.76274 -7.2717
rtoes -6.36981
lfemur -46.6308 -8.85105 -28.1159
ltibia 35.4505
lfoot -10.3738 20.4143
ltoes -9.30706
959
root 5.54711 22.4104 -13.2597 28.0916 0.29648 3.01314
lowerback -8.41008 -2.32434 -7.53392
upperback -12.8038 -2.85804 1.4614
thorax -8.57308 -0.678904 5.73909
lowerneck -9.42753 -2.32544 -7.92794
upperneck 51.6222 -0.258285 -2.04551
head 24.4627 -2.01929 0.281273
rclavicle 1.41323e-014 -1.98785e-014
rhumerus -54.4964 11.7814 -78.2787
rradius 45.1436
rwrist 3.91757
rhand -13.1612 -14.3353
rfingers 7.12502
rthumb 12.9378 -43.9142
lclavicle 1.41323e-014 -1.98785e-014
lhumerus -50.4184 5.77098 81.524
lradius 40.6472
lwrist 0.921452
lhand -11.9667 28.4703
lfingers 7.12502
lthumb 14.089 57.9727
rfemur -55.4286 -5.11648 21.2725
rtibia 68.0892
rfoot -2.64653 -6.87803
rtoes -4.79886
lfemur -46.6658 -8.75608 -28.5547
ltibia 35.3952
lfoot -10.4836 20.0641
ltoes -9.5884
960
root 5.56895 22.3982 -13.214 28.0803 0.344798 3.14992
lowerback -8.26075 -2.38671 -7.70269
upperback -12.899 -2.95617 1.4405
thorax -8.75191 -0.702774 5.81873
lowerneck -9.15101 -2.35471 -7.98974
upperneck 51.6091 -0.30286 -2.09583
head 24.3281 -2.05364 0.257785
rclavicle 1.55611e-014 9.54166e-015
rhumerus -54.8208 11.8794 -78.2808
rradius 44.6593
rwrist 4.69587
rhand -12.5377 -13.615
rfingers 7.12502
rthumb 13.5388 -43.1549
lclavicle 1.55611e-014 9.54166e-015
lhumerus -50.6278 5.58287 81.5982
lradius 40.9086
lwrist 0.969305
lhand -11.7921 28.5253
lfingers 7.12502
lthumb 14.2573 58.0159
rfemur -56.5859 -5.52187 21.1193
rtibia 69.6064
rfoot -1.19843 -6.55571
rtoes -3.26459
lfemur -46.4638 -8.78631 -28.8438
ltibia 35.3698
lfoot -10.7513 20.2002
ltoes -9.209
961
root 5.59014 22.4008 -13.1657 27.9877 0.40928 3.25787
lowerback -8.13744 -2.43774 -7.80027
upperback -12.8232 -3.03311 1.4001
thorax -8.72263 -0.738443 5.83087
lowerneck -9.24715 -2.37877 -7.98639
upperneck 51.5967 -0.308992 -2.14553
head 24.3596 -2.06186 0.224932
rclavicle -8.41108e-015 -1.78906e-014
rhumerus -54.8986 11.813 -78.1883
rradius 44.2311
rwrist 5.542
rhand -11.6249 -13.2958
rfingers 7.12502
rthumb 14.4184 -42.775
lclavicle -8.41108e-015 -1.78906e-014
lhumerus -50.5559 5.39385 81.6949
lradius 41.1481
lwrist 1.15059
lhand -11.9528 28.3813
lfingers 7.12502
lthumb 14.1025 57.8828
rfemur -57.5224 -5.88423 21.0128
rtibia 70.9217
rfoot -0.955899 -6.45575
rtoes -3.54917
lfemur -46.0868 -8.88633 -29.0295
ltibia 35.3255
lfoot -11.043 20.2912
ltoes -8.7773
